<mxfile host="app.diagrams.net" modified="2023-04-25T11:51:40.494Z" agent="Mozilla/5.0 (Windows NT 10.0; Win64; x64) AppleWebKit/537.36 (KHTML, like Gecko) Chrome/112.0.0.0 Safari/537.36 Edg/112.0.1722.58" etag="XlWUXQrrlTCHJaA7DAAl" version="21.2.1" type="device">
  <diagram name="Page-1" id="eQnlbKhWHnRceURBmxLE">
    <mxGraphModel dx="2704" dy="2227" grid="1" gridSize="10" guides="1" tooltips="1" connect="1" arrows="1" fold="1" page="1" pageScale="1" pageWidth="850" pageHeight="1100" math="0" shadow="0">
      <root>
        <mxCell id="0" />
        <mxCell id="1" parent="0" />
        <mxCell id="p0b8DTTDvFmvQ0E5esFj-20" value="nytimes_data_in_usa_us_county" style="swimlane;fontStyle=0;childLayout=stackLayout;horizontal=1;startSize=26;fillColor=none;horizontalStack=0;resizeParent=1;resizeParentMax=0;resizeLast=0;collapsible=1;marginBottom=0;whiteSpace=wrap;html=1;" parent="1" vertex="1">
          <mxGeometry x="-320" y="-1075.5" width="200" height="181" as="geometry" />
        </mxCell>
        <mxCell id="p0b8DTTDvFmvQ0E5esFj-19" value="&lt;pre style=&quot;font-family: var(--font-family-monospace-iz223z, Monaco, Menlo, Consolas, &amp;quot;Courier Prime&amp;quot;, Courier, &amp;quot;Courier New&amp;quot;, monospace); font-size: var(--font-body-s-size-ukw2p9, 12px); background: rgb(255, 255, 255); margin: 0px; overflow: auto; padding: var(--space-scaled-xl-w2t504, 24px) var(--space-xl-a39hup, 24px); -webkit-font-smoothing: auto; font-weight: 400; line-height: var(--font-body-s-line-height-kdsbrl, 16px); color: rgb(22, 25, 31); letter-spacing: normal; font-style: normal; font-variant-ligatures: normal; font-variant-caps: normal; orphans: 2; text-align: left; text-indent: 0px; text-transform: none; widows: 2; word-spacing: 0px; -webkit-text-stroke-width: 0px; text-decoration-thickness: initial; text-decoration-style: initial; text-decoration-color: initial;&quot; class=&quot;awsui_root_18wu0_1tu1m_93 awsui_box_18wu0_1tu1m_207 awsui_pre-variant_18wu0_1tu1m_207 awsui_p-xl_18wu0_1tu1m_674 awsui_color-default_18wu0_1tu1m_207 awsui_font-size-body-s_18wu0_1tu1m_346 awsui_font-weight-default_18wu0_1tu1m_263&quot; data-testid=&quot;query-results-text&quot;&gt; `date` string, &#xa;  `county` string, &#xa;  `state` string, &#xa;  `fips` bigint, &#xa;  `cases` bigint, &#xa;  `deaths` bigint&lt;/pre&gt;" style="text;whiteSpace=wrap;html=1;" parent="p0b8DTTDvFmvQ0E5esFj-20" vertex="1">
          <mxGeometry y="26" width="200" height="155" as="geometry" />
        </mxCell>
        <mxCell id="p0b8DTTDvFmvQ0E5esFj-24" value="static_dataset_state_abv" style="swimlane;fontStyle=0;childLayout=stackLayout;horizontal=1;startSize=26;fillColor=none;horizontalStack=0;resizeParent=1;resizeParentMax=0;resizeLast=0;collapsible=1;marginBottom=0;whiteSpace=wrap;html=1;" parent="1" vertex="1">
          <mxGeometry x="-210" y="-628" width="150" height="126" as="geometry" />
        </mxCell>
        <mxCell id="p0b8DTTDvFmvQ0E5esFj-42" value="&lt;pre style=&quot;font-family: var(--font-family-monospace-iz223z, Monaco, Menlo, Consolas, &amp;quot;Courier Prime&amp;quot;, Courier, &amp;quot;Courier New&amp;quot;, monospace); font-size: var(--font-body-s-size-ukw2p9, 12px); background: rgb(255, 255, 255); margin: 0px; overflow: auto; padding: var(--space-scaled-xl-w2t504, 24px) var(--space-xl-a39hup, 24px); -webkit-font-smoothing: auto; font-weight: 400; line-height: var(--font-body-s-line-height-kdsbrl, 16px); color: rgb(22, 25, 31); letter-spacing: normal; font-style: normal; font-variant-ligatures: normal; font-variant-caps: normal; orphans: 2; text-align: left; text-indent: 0px; text-transform: none; widows: 2; word-spacing: 0px; -webkit-text-stroke-width: 0px; text-decoration-thickness: initial; text-decoration-style: initial; text-decoration-color: initial;&quot; class=&quot;awsui_root_18wu0_1tu1m_93 awsui_box_18wu0_1tu1m_207 awsui_pre-variant_18wu0_1tu1m_207 awsui_p-xl_18wu0_1tu1m_674 awsui_color-default_18wu0_1tu1m_207 awsui_font-size-body-s_18wu0_1tu1m_346 awsui_font-weight-default_18wu0_1tu1m_263&quot; data-testid=&quot;query-results-text&quot;&gt;`col0` string, &#xa;  `col1` string&lt;/pre&gt;" style="text;whiteSpace=wrap;html=1;" parent="p0b8DTTDvFmvQ0E5esFj-24" vertex="1">
          <mxGeometry y="26" width="150" height="100" as="geometry" />
        </mxCell>
        <mxCell id="p0b8DTTDvFmvQ0E5esFj-25" value="nytimes_data_in_usa_us_state" style="swimlane;fontStyle=0;childLayout=stackLayout;horizontal=1;startSize=26;fillColor=none;horizontalStack=0;resizeParent=1;resizeParentMax=0;resizeLast=0;collapsible=1;marginBottom=0;whiteSpace=wrap;html=1;" parent="1" vertex="1">
          <mxGeometry x="-200" y="-880" width="170" height="176" as="geometry" />
        </mxCell>
        <mxCell id="p0b8DTTDvFmvQ0E5esFj-26" value="&lt;pre style=&quot;font-family: var(--font-family-monospace-iz223z, Monaco, Menlo, Consolas, &amp;quot;Courier Prime&amp;quot;, Courier, &amp;quot;Courier New&amp;quot;, monospace); font-size: var(--font-body-s-size-ukw2p9, 12px); background: rgb(255, 255, 255); margin: 0px; overflow: auto; padding: var(--space-scaled-xl-w2t504, 24px) var(--space-xl-a39hup, 24px); -webkit-font-smoothing: auto; font-weight: 400; line-height: var(--font-body-s-line-height-kdsbrl, 16px); color: rgb(22, 25, 31); letter-spacing: normal; font-style: normal; font-variant-ligatures: normal; font-variant-caps: normal; orphans: 2; text-align: left; text-indent: 0px; text-transform: none; widows: 2; word-spacing: 0px; -webkit-text-stroke-width: 0px; text-decoration-thickness: initial; text-decoration-style: initial; text-decoration-color: initial;&quot; class=&quot;awsui_root_18wu0_1tu1m_93 awsui_box_18wu0_1tu1m_207 awsui_pre-variant_18wu0_1tu1m_207 awsui_p-xl_18wu0_1tu1m_674 awsui_color-default_18wu0_1tu1m_207 awsui_font-size-body-s_18wu0_1tu1m_346 awsui_font-weight-default_18wu0_1tu1m_263&quot; data-testid=&quot;query-results-text&quot;&gt; `date` string, &#xa;  `state` string, &#xa;  `fips` bigint, &#xa;  `cases` bigint, &#xa;  `deaths` bigint&lt;/pre&gt;" style="text;whiteSpace=wrap;html=1;" parent="p0b8DTTDvFmvQ0E5esFj-25" vertex="1">
          <mxGeometry y="26" width="170" height="150" as="geometry" />
        </mxCell>
        <mxCell id="p0b8DTTDvFmvQ0E5esFj-29" value="" style="group" parent="1" vertex="1" connectable="0">
          <mxGeometry x="530" y="-1060" width="320.00000000000006" height="990" as="geometry" />
        </mxCell>
        <mxCell id="HyxNwZf2nxsRUC4-6Ws2-35" value="" style="group" parent="p0b8DTTDvFmvQ0E5esFj-29" vertex="1" connectable="0">
          <mxGeometry x="-10" y="-25" width="320.00000000000006" height="990" as="geometry" />
        </mxCell>
        <mxCell id="p0b8DTTDvFmvQ0E5esFj-27" value="rearc_covid19_testing_states_daily" style="swimlane;fontStyle=0;childLayout=stackLayout;horizontal=1;startSize=26;fillColor=none;horizontalStack=0;resizeParent=1;resizeParentMax=0;resizeLast=0;collapsible=1;marginBottom=0;whiteSpace=wrap;html=1;" parent="HyxNwZf2nxsRUC4-6Ws2-35" vertex="1">
          <mxGeometry width="320" height="996" as="geometry" />
        </mxCell>
        <mxCell id="QKDm_skeis3yHvIdtylH-9" value="&lt;pre style=&quot;font-family: var(--font-family-monospace-iz223z, Monaco, Menlo, Consolas, &amp;quot;Courier Prime&amp;quot;, Courier, &amp;quot;Courier New&amp;quot;, monospace); font-size: var(--font-body-s-size-ukw2p9, 12px); background: rgb(255, 255, 255); margin: 0px; overflow: auto; padding: var(--space-scaled-xl-w2t504, 24px) var(--space-xl-a39hup, 24px); -webkit-font-smoothing: auto; font-weight: 400; line-height: var(--font-body-s-line-height-kdsbrl, 16px); color: rgb(22, 25, 31); letter-spacing: normal; font-style: normal; font-variant-ligatures: normal; font-variant-caps: normal; orphans: 2; text-align: left; text-indent: 0px; text-transform: none; widows: 2; word-spacing: 0px; -webkit-text-stroke-width: 0px; text-decoration-thickness: initial; text-decoration-style: initial; text-decoration-color: initial;&quot; class=&quot;awsui_root_18wu0_1n6nk_93 awsui_box_18wu0_1n6nk_207 awsui_pre-variant_18wu0_1n6nk_207 awsui_p-xl_18wu0_1n6nk_674 awsui_color-default_18wu0_1n6nk_207 awsui_font-size-body-s_18wu0_1n6nk_346 awsui_font-weight-default_18wu0_1n6nk_263&quot; data-testid=&quot;query-results-text&quot;&gt;`date` string, &#xa;  `state` string, &#xa;  `positive` bigint, &#xa;  `totaltestresultssource` string, &#xa;  `totaltestresults` bigint, &#xa;  `hospitalizedcurrently` bigint, &#xa;  `hospitalizedcumulative` bigint, &#xa;  `onventilatorcurrently` bigint, &#xa;  `lastupdateet` string, &#xa;  `datemodified` string, &#xa;  `checktimeet` string, &#xa;  `death` bigint, &#xa;  `hospitalized` bigint, &#xa;  `datechecked` string, &#xa;  `totaltestsviral` bigint, &#xa;  `positivetestsviral` bigint, &#xa;  `negativetestsviral` bigint, &#xa;  `positiveincrease` bigint, &#xa;  `negativeincrease` bigint, &#xa;  `total` bigint, &#xa;  `totaltestresultsincrease` bigint, &#xa;  `posneg` bigint, &#xa;  `dataqualitygrade` string, &#xa;  `deathincrease` bigint, &#xa;  `hospitalizedincrease` bigint, &#xa;  `hash` string, &#xa;  `commercialscore` bigint, &#xa;  `negativeregularscore` bigint, &#xa;  `negativescore` bigint, &#xa;  `positivescore` bigint, &#xa;  `score` bigint, &#xa;  `grade` string, &#xa;  `probablecases` bigint, &#xa;  `negative` bigint, &#xa;  `inicucumulative` bigint, &#xa;  `onventilatorcumulative` bigint, &#xa;  `recovered` bigint, &#xa;  `positivecasesviral` bigint, &#xa;  `deathconfirmed` bigint, &#xa;  `deathprobable` bigint, &#xa;  `totaltestspeopleviral` bigint, &#xa;  `totaltestspeopleantibody` bigint, &#xa;  `inicucurrently` bigint, &#xa;  `totaltestspeopleantigen` bigint, &#xa;  `positivetestspeopleantigen` bigint, &#xa;  `hospitalizeddischarged` bigint, &#xa;  `totaltestsantibody` bigint, &#xa;  `totaltestencountersviral` bigint, &#xa;  `positivetestsantibody` bigint, &#xa;  `negativetestsantibody` bigint, &#xa;  `totaltestsantigen` bigint, &#xa;  `positivetestsantigen` bigint, &#xa;  `pending` bigint, &#xa;  `positivetestspeopleantibody` bigint, &#xa;  `negativetestspeopleantibody` bigint, &#xa;  `state_fips` bigint&lt;/pre&gt;" style="text;whiteSpace=wrap;html=1;" vertex="1" parent="p0b8DTTDvFmvQ0E5esFj-27">
          <mxGeometry y="26" width="320" height="970" as="geometry" />
        </mxCell>
        <mxCell id="p0b8DTTDvFmvQ0E5esFj-30" value="rearc_covid19_testing_us_daily" style="swimlane;fontStyle=0;childLayout=stackLayout;horizontal=1;startSize=26;fillColor=none;horizontalStack=0;resizeParent=1;resizeParentMax=0;resizeLast=0;collapsible=1;marginBottom=0;whiteSpace=wrap;html=1;" parent="1" vertex="1">
          <mxGeometry x="50" y="-540" width="300" height="490" as="geometry" />
        </mxCell>
        <mxCell id="p0b8DTTDvFmvQ0E5esFj-31" value="&lt;pre style=&quot;font-family: var(--font-family-monospace-iz223z, Monaco, Menlo, Consolas, &amp;quot;Courier Prime&amp;quot;, Courier, &amp;quot;Courier New&amp;quot;, monospace); font-size: var(--font-body-s-size-ukw2p9, 12px); background: rgb(255, 255, 255); margin: 0px; overflow: auto; padding: var(--space-scaled-xl-w2t504, 24px) var(--space-xl-a39hup, 24px); -webkit-font-smoothing: auto; font-weight: 400; line-height: var(--font-body-s-line-height-kdsbrl, 16px); color: rgb(22, 25, 31); letter-spacing: normal; font-style: normal; font-variant-ligatures: normal; font-variant-caps: normal; orphans: 2; text-align: left; text-indent: 0px; text-transform: none; widows: 2; word-spacing: 0px; -webkit-text-stroke-width: 0px; text-decoration-thickness: initial; text-decoration-style: initial; text-decoration-color: initial;&quot; class=&quot;awsui_root_18wu0_1tu1m_93 awsui_box_18wu0_1tu1m_207 awsui_pre-variant_18wu0_1tu1m_207 awsui_p-xl_18wu0_1tu1m_674 awsui_color-default_18wu0_1tu1m_207 awsui_font-size-body-s_18wu0_1tu1m_346 awsui_font-weight-default_18wu0_1tu1m_263&quot; data-testid=&quot;query-results-text&quot;&gt; `date` bigint, &#xa;  `states` bigint, &#xa;  `positive` bigint, &#xa;  `negative` bigint, &#xa;  `pending` bigint, &#xa;  `hospitalizedcurrently` bigint, &#xa;  `hospitalizedcumulative` bigint, &#xa;  `inicucurrently` bigint, &#xa;  `inicucumulative` bigint, &#xa;  `onventilatorcurrently` bigint, &#xa;  `onventilatorcumulative` bigint, &#xa;  `datechecked` string, &#xa;  `death` bigint, &#xa;  `hospitalized` bigint, &#xa;  `totaltestresults` bigint, &#xa;  `lastmodified` string, &#xa;  `recovered` string, &#xa;  `total` bigint, &#xa;  `posneg` bigint, &#xa;  `deathincrease` bigint, &#xa;  `hospitalizedincrease` bigint, &#xa;  `negativeincrease` bigint, &#xa;  `positiveincrease` bigint, &#xa;  `totaltestresultsincrease` bigint, &#xa;  `hash` string&lt;/pre&gt;" style="text;whiteSpace=wrap;html=1;" parent="p0b8DTTDvFmvQ0E5esFj-30" vertex="1">
          <mxGeometry y="26" width="300" height="464" as="geometry" />
        </mxCell>
        <mxCell id="p0b8DTTDvFmvQ0E5esFj-32" value="rearc_covid19_testing_us_total_latest" style="swimlane;fontStyle=0;childLayout=stackLayout;horizontal=1;startSize=26;fillColor=none;horizontalStack=0;resizeParent=1;resizeParentMax=0;resizeLast=0;collapsible=1;marginBottom=0;whiteSpace=wrap;html=1;" parent="1" vertex="1">
          <mxGeometry x="-810" y="-530" width="290" height="380" as="geometry" />
        </mxCell>
        <mxCell id="p0b8DTTDvFmvQ0E5esFj-33" value="&lt;pre style=&quot;font-family: var(--font-family-monospace-iz223z, Monaco, Menlo, Consolas, &amp;quot;Courier Prime&amp;quot;, Courier, &amp;quot;Courier New&amp;quot;, monospace); font-size: var(--font-body-s-size-ukw2p9, 12px); background: rgb(255, 255, 255); margin: 0px; overflow: auto; padding: var(--space-scaled-xl-w2t504, 24px) var(--space-xl-a39hup, 24px); -webkit-font-smoothing: auto; font-weight: 400; line-height: var(--font-body-s-line-height-kdsbrl, 16px); color: rgb(22, 25, 31); letter-spacing: normal; font-style: normal; font-variant-ligatures: normal; font-variant-caps: normal; orphans: 2; text-align: left; text-indent: 0px; text-transform: none; widows: 2; word-spacing: 0px; -webkit-text-stroke-width: 0px; text-decoration-thickness: initial; text-decoration-style: initial; text-decoration-color: initial;&quot; class=&quot;awsui_root_18wu0_1tu1m_93 awsui_box_18wu0_1tu1m_207 awsui_pre-variant_18wu0_1tu1m_207 awsui_p-xl_18wu0_1tu1m_674 awsui_color-default_18wu0_1tu1m_207 awsui_font-size-body-s_18wu0_1tu1m_346 awsui_font-weight-default_18wu0_1tu1m_263&quot; data-testid=&quot;query-results-text&quot;&gt;`positive` bigint, &#xa;  `negative` bigint, &#xa;  `pending` bigint, &#xa;  `hospitalizedcurrently` bigint, &#xa;  `hospitalizedcumulative` bigint, &#xa;  `inicucurrently` bigint, &#xa;  `inicucumulative` bigint, &#xa;  `onventilatorcurrently` bigint, &#xa;  `onventilatorcumulative` bigint, &#xa;  `recovered` bigint, &#xa;  `hash` string, &#xa;  `lastmodified` string, &#xa;  `death` bigint, &#xa;  `hospitalized` bigint, &#xa;  `total` bigint, &#xa;  `totaltestresults` bigint, &#xa;  `posneg` bigint, &#xa;  `notes` string&lt;/pre&gt;" style="text;whiteSpace=wrap;html=1;" parent="p0b8DTTDvFmvQ0E5esFj-32" vertex="1">
          <mxGeometry y="26" width="290" height="354" as="geometry" />
        </mxCell>
        <mxCell id="p0b8DTTDvFmvQ0E5esFj-37" value="" style="group" parent="1" vertex="1" connectable="0">
          <mxGeometry y="-1080" width="565" height="470" as="geometry" />
        </mxCell>
        <mxCell id="p0b8DTTDvFmvQ0E5esFj-35" value="rearc_usa_hospital_beds" style="swimlane;fontStyle=0;childLayout=stackLayout;horizontal=1;startSize=26;fillColor=none;horizontalStack=0;resizeParent=1;resizeParentMax=0;resizeLast=0;collapsible=1;marginBottom=0;whiteSpace=wrap;html=1;" parent="p0b8DTTDvFmvQ0E5esFj-37" vertex="1">
          <mxGeometry width="510" height="460" as="geometry" />
        </mxCell>
        <mxCell id="p0b8DTTDvFmvQ0E5esFj-36" value="&lt;pre style=&quot;font-family: var(--font-family-monospace-iz223z, Monaco, Menlo, Consolas, &amp;quot;Courier Prime&amp;quot;, Courier, &amp;quot;Courier New&amp;quot;, monospace); font-size: var(--font-body-s-size-ukw2p9, 12px); background: rgb(255, 255, 255); margin: 0px; overflow: auto; padding: var(--space-scaled-xl-w2t504, 24px) var(--space-xl-a39hup, 24px); -webkit-font-smoothing: auto; font-weight: 400; line-height: var(--font-body-s-line-height-kdsbrl, 16px); color: rgb(22, 25, 31); letter-spacing: normal; font-style: normal; font-variant-ligatures: normal; font-variant-caps: normal; orphans: 2; text-align: left; text-indent: 0px; text-transform: none; widows: 2; word-spacing: 0px; -webkit-text-stroke-width: 0px; text-decoration-thickness: initial; text-decoration-style: initial; text-decoration-color: initial;&quot; class=&quot;awsui_root_18wu0_1tu1m_93 awsui_box_18wu0_1tu1m_207 awsui_pre-variant_18wu0_1tu1m_207 awsui_p-xl_18wu0_1tu1m_674 awsui_color-default_18wu0_1tu1m_207 awsui_font-size-body-s_18wu0_1tu1m_346 awsui_font-weight-default_18wu0_1tu1m_263&quot; data-testid=&quot;query-results-text&quot;&gt;`objectid` int COMMENT &#39;from deserializer&#39;, &lt;br&gt;  `hospital_name` string COMMENT &#39;from deserializer, &lt;br&gt;  `hospital_type` string COMMENT &#39;from deserializer&#39;, &lt;br&gt;  `hq_address` string COMMENT &#39;from deserializer&#39;, &lt;br&gt;  `hq_address1` string COMMENT &#39;from deserializer&#39;, &lt;br&gt;  `hq_city` string COMMENT &#39;from deserializer&#39;, &lt;br&gt;  `hq_state` string COMMENT &#39;from deserializer&#39;, &lt;br&gt;  `hq_zip_code` string COMMENT &#39;from deserializer&#39;, &lt;br&gt;  `county_name` string COMMENT &#39;from deserializer&#39;, &lt;br&gt;  `state_name` string COMMENT &#39;from deserializer&#39;, &lt;br&gt;  `state_fips` string COMMENT &#39;from deserializer&#39;, &lt;br&gt;  `cnty_fips` string COMMENT &#39;from deserializer&#39;, &lt;br&gt;  `fips` string COMMENT &#39;from deserializer&#39;, &lt;br&gt;  `num_licensed_beds` int COMMENT &#39;from deserializer&#39;, &lt;br&gt;  `num_staffed_beds` int COMMENT &#39;from deserializer&#39;, &lt;br&gt;  `num_icu_beds` int COMMENT &#39;from deserializer&#39;, &lt;br&gt;  `adult_icu_beds` int COMMENT &#39;from deserializer&#39;, &lt;br&gt;  `pedi_icu_beds` double COMMENT &#39;from deserializer&#39;, &lt;br&gt;  `bed_utilization` double COMMENT &#39;from deserializer&#39;, &lt;br&gt;  `avg_ventilator_usage` double COMMENT &#39;from deserializer&#39;, &lt;br&gt;  `potential_increase_in_bed_capac` int COMMENT &#39;from deserializer&#39;, &lt;br&gt;  `latitude` double COMMENT &#39;from deserializer&#39;, &lt;br&gt;  `longtitude` double COMMENT &#39;from deserializer&#39;&lt;/pre&gt;" style="text;whiteSpace=wrap;html=1;" parent="p0b8DTTDvFmvQ0E5esFj-37" vertex="1">
          <mxGeometry x="5" y="30" width="505" height="440" as="geometry" />
        </mxCell>
        <mxCell id="QKDm_skeis3yHvIdtylH-24" style="edgeStyle=orthogonalEdgeStyle;rounded=0;orthogonalLoop=1;jettySize=auto;html=1;exitX=0.5;exitY=1;exitDx=0;exitDy=0;" edge="1" parent="p0b8DTTDvFmvQ0E5esFj-37" source="p0b8DTTDvFmvQ0E5esFj-36" target="p0b8DTTDvFmvQ0E5esFj-36">
          <mxGeometry relative="1" as="geometry" />
        </mxCell>
        <mxCell id="p0b8DTTDvFmvQ0E5esFj-38" value="static_dataset_country_code" style="swimlane;fontStyle=0;childLayout=stackLayout;horizontal=1;startSize=26;fillColor=none;horizontalStack=0;resizeParent=1;resizeParentMax=0;resizeLast=0;collapsible=1;marginBottom=0;whiteSpace=wrap;html=1;" parent="1" vertex="1">
          <mxGeometry x="-477.5" y="-760" width="220" height="190" as="geometry" />
        </mxCell>
        <mxCell id="p0b8DTTDvFmvQ0E5esFj-39" value="&lt;pre style=&quot;font-family: var(--font-family-monospace-iz223z, Monaco, Menlo, Consolas, &amp;quot;Courier Prime&amp;quot;, Courier, &amp;quot;Courier New&amp;quot;, monospace); font-size: var(--font-body-s-size-ukw2p9, 12px); background: rgb(255, 255, 255); margin: 0px; overflow: auto; padding: var(--space-scaled-xl-w2t504, 24px) var(--space-xl-a39hup, 24px); -webkit-font-smoothing: auto; font-weight: 400; line-height: var(--font-body-s-line-height-kdsbrl, 16px); color: rgb(22, 25, 31); letter-spacing: normal; font-style: normal; font-variant-ligatures: normal; font-variant-caps: normal; orphans: 2; text-align: left; text-indent: 0px; text-transform: none; widows: 2; word-spacing: 0px; -webkit-text-stroke-width: 0px; text-decoration-thickness: initial; text-decoration-style: initial; text-decoration-color: initial;&quot; class=&quot;awsui_root_18wu0_1tu1m_93 awsui_box_18wu0_1tu1m_207 awsui_pre-variant_18wu0_1tu1m_207 awsui_p-xl_18wu0_1tu1m_674 awsui_color-default_18wu0_1tu1m_207 awsui_font-size-body-s_18wu0_1tu1m_346 awsui_font-weight-default_18wu0_1tu1m_263&quot; data-testid=&quot;query-results-text&quot;&gt;`country` string, &#xa;  `alpha-2 code` string, &#xa;  `alpha-3 code` string, &#xa;  `numeric code` bigint, &#xa;  `latitude` double, &#xa;  `longitude` double&lt;/pre&gt;" style="text;whiteSpace=wrap;html=1;" parent="p0b8DTTDvFmvQ0E5esFj-38" vertex="1">
          <mxGeometry y="26" width="220" height="164" as="geometry" />
        </mxCell>
        <mxCell id="p0b8DTTDvFmvQ0E5esFj-40" value="static_dataset_countypopulation" style="swimlane;fontStyle=0;childLayout=stackLayout;horizontal=1;startSize=26;fillColor=none;horizontalStack=0;resizeParent=1;resizeParentMax=0;resizeLast=0;collapsible=1;marginBottom=0;whiteSpace=wrap;html=1;" parent="1" vertex="1">
          <mxGeometry x="-810" y="-760" width="290" height="170" as="geometry" />
        </mxCell>
        <mxCell id="p0b8DTTDvFmvQ0E5esFj-41" value="&lt;pre style=&quot;font-family: var(--font-family-monospace-iz223z, Monaco, Menlo, Consolas, &amp;quot;Courier Prime&amp;quot;, Courier, &amp;quot;Courier New&amp;quot;, monospace); font-size: var(--font-body-s-size-ukw2p9, 12px); background: rgb(255, 255, 255); margin: 0px; overflow: auto; padding: var(--space-scaled-xl-w2t504, 24px) var(--space-xl-a39hup, 24px); -webkit-font-smoothing: auto; font-weight: 400; line-height: var(--font-body-s-line-height-kdsbrl, 16px); color: rgb(22, 25, 31); letter-spacing: normal; font-style: normal; font-variant-ligatures: normal; font-variant-caps: normal; orphans: 2; text-align: left; text-indent: 0px; text-transform: none; widows: 2; word-spacing: 0px; -webkit-text-stroke-width: 0px; text-decoration-thickness: initial; text-decoration-style: initial; text-decoration-color: initial;&quot; class=&quot;awsui_root_18wu0_1tu1m_93 awsui_box_18wu0_1tu1m_207 awsui_pre-variant_18wu0_1tu1m_207 awsui_p-xl_18wu0_1tu1m_674 awsui_color-default_18wu0_1tu1m_207 awsui_font-size-body-s_18wu0_1tu1m_346 awsui_font-weight-default_18wu0_1tu1m_263&quot; data-testid=&quot;query-results-text&quot;&gt; `id` string, &#xa;  `id2` bigint, &#xa;  `county` string, &#xa;  `state` string, &#xa;  `population estimate 2018` bigint&lt;/pre&gt;" style="text;whiteSpace=wrap;html=1;" parent="p0b8DTTDvFmvQ0E5esFj-40" vertex="1">
          <mxGeometry y="26" width="290" height="144" as="geometry" />
        </mxCell>
        <mxCell id="QKDm_skeis3yHvIdtylH-6" value="enigma_jhu" style="swimlane;fontStyle=0;childLayout=stackLayout;horizontal=1;startSize=26;fillColor=none;horizontalStack=0;resizeParent=1;resizeParentMax=0;resizeLast=0;collapsible=1;marginBottom=0;whiteSpace=wrap;html=1;" vertex="1" parent="1">
          <mxGeometry x="-810" y="-1080" width="420" height="286" as="geometry" />
        </mxCell>
        <mxCell id="QKDm_skeis3yHvIdtylH-8" value="&lt;pre style=&quot;font-family: var(--font-family-monospace-iz223z, Monaco, Menlo, Consolas, &amp;quot;Courier Prime&amp;quot;, Courier, &amp;quot;Courier New&amp;quot;, monospace); font-size: var(--font-body-s-size-ukw2p9, 12px); background: rgb(255, 255, 255); margin: 0px; overflow: auto; padding: var(--space-scaled-xl-w2t504, 24px) var(--space-xl-a39hup, 24px); -webkit-font-smoothing: auto; font-weight: 400; line-height: var(--font-body-s-line-height-kdsbrl, 16px); color: rgb(22, 25, 31); letter-spacing: normal; font-style: normal; font-variant-ligatures: normal; font-variant-caps: normal; orphans: 2; text-align: left; text-indent: 0px; text-transform: none; widows: 2; word-spacing: 0px; -webkit-text-stroke-width: 0px; text-decoration-thickness: initial; text-decoration-style: initial; text-decoration-color: initial;&quot; class=&quot;awsui_root_18wu0_1n6nk_93 awsui_box_18wu0_1n6nk_207 awsui_pre-variant_18wu0_1n6nk_207 awsui_p-xl_18wu0_1n6nk_674 awsui_color-default_18wu0_1n6nk_207 awsui_font-size-body-s_18wu0_1n6nk_346 awsui_font-weight-default_18wu0_1n6nk_263&quot; data-testid=&quot;query-results-text&quot;&gt;`county` string COMMENT &#39;from deserializer&#39;, &#xa;  `province_state` string COMMENT &#39;from deserializer&#39;, &#xa;  `country_region` string COMMENT &#39;from deserializer&#39;, &#xa;  `last_update` string COMMENT &#39;from deserializer&#39;, &#xa;  `latitude` string COMMENT &#39;from deserializer&#39;, &#xa;  `longitude` string COMMENT &#39;from deserializer&#39;, &#xa;  `confirmed` string COMMENT &#39;from deserializer&#39;, &#xa;  `active` string COMMENT &#39;from deserializer&#39;, &#xa;  `combined_key` string COMMENT &#39;from deserializer&#39;, &#xa;  `recovered` string COMMENT &#39;from deserializer&#39;, &#xa;  `deaths` string COMMENT &#39;from deserializer&#39;, &#xa;  `county_fips` string COMMENT &#39;from deserializer&#39;&lt;/pre&gt;" style="text;whiteSpace=wrap;html=1;" vertex="1" parent="QKDm_skeis3yHvIdtylH-6">
          <mxGeometry y="26" width="420" height="260" as="geometry" />
        </mxCell>
        <mxCell id="QKDm_skeis3yHvIdtylH-10" value="" style="group" vertex="1" connectable="0" parent="1">
          <mxGeometry x="-477.5" y="-425" width="490" height="170" as="geometry" />
        </mxCell>
        <mxCell id="QKDm_skeis3yHvIdtylH-1" value="cdc_moderna_vaccine_distribution" style="swimlane;fontStyle=0;childLayout=stackLayout;horizontal=1;startSize=26;fillColor=none;horizontalStack=0;resizeParent=1;resizeParentMax=0;resizeLast=0;collapsible=1;marginBottom=0;whiteSpace=wrap;html=1;" vertex="1" parent="QKDm_skeis3yHvIdtylH-10">
          <mxGeometry width="460" height="160" as="geometry" />
        </mxCell>
        <mxCell id="QKDm_skeis3yHvIdtylH-3" value="&lt;pre style=&quot;font-family: var(--font-family-monospace-iz223z, Monaco, Menlo, Consolas, &amp;quot;Courier Prime&amp;quot;, Courier, &amp;quot;Courier New&amp;quot;, monospace); font-size: var(--font-body-s-size-ukw2p9, 12px); background: rgb(255, 255, 255); margin: 0px; overflow: auto; padding: var(--space-scaled-xl-w2t504, 24px) var(--space-xl-a39hup, 24px); -webkit-font-smoothing: auto; font-weight: 400; line-height: var(--font-body-s-line-height-kdsbrl, 16px); color: rgb(22, 25, 31); letter-spacing: normal; font-style: normal; font-variant-ligatures: normal; font-variant-caps: normal; orphans: 2; text-align: left; text-indent: 0px; text-transform: none; widows: 2; word-spacing: 0px; -webkit-text-stroke-width: 0px; text-decoration-thickness: initial; text-decoration-style: initial; text-decoration-color: initial;&quot; class=&quot;awsui_root_18wu0_1n6nk_93 awsui_box_18wu0_1n6nk_207 awsui_pre-variant_18wu0_1n6nk_207 awsui_p-xl_18wu0_1n6nk_674 awsui_color-default_18wu0_1n6nk_207 awsui_font-size-body-s_18wu0_1n6nk_346 awsui_font-weight-default_18wu0_1n6nk_263&quot; data-testid=&quot;query-results-text&quot;&gt;`jurisdiction` string COMMENT &#39;from deserializer&#39;, &#xa;  `week_of_allocations` string COMMENT &#39;from deserializer&#39;, &#xa;  `_1st_dose_allocations` string COMMENT &#39;from deserializer&#39;, &#xa;  `_2nd_dose_allocations` string COMMENT &#39;from deserializer&#39;&lt;/pre&gt;" style="text;whiteSpace=wrap;html=1;" vertex="1" parent="QKDm_skeis3yHvIdtylH-10">
          <mxGeometry y="30" width="490" height="140" as="geometry" />
        </mxCell>
        <mxCell id="QKDm_skeis3yHvIdtylH-11" value="" style="group" vertex="1" connectable="0" parent="1">
          <mxGeometry x="-477.5" y="-210" width="490" height="170" as="geometry" />
        </mxCell>
        <mxCell id="QKDm_skeis3yHvIdtylH-4" value="cdc_moderna_vaccine_distribution" style="swimlane;fontStyle=0;childLayout=stackLayout;horizontal=1;startSize=26;fillColor=none;horizontalStack=0;resizeParent=1;resizeParentMax=0;resizeLast=0;collapsible=1;marginBottom=0;whiteSpace=wrap;html=1;" vertex="1" parent="QKDm_skeis3yHvIdtylH-11">
          <mxGeometry width="460" height="160" as="geometry" />
        </mxCell>
        <mxCell id="QKDm_skeis3yHvIdtylH-5" value="&lt;pre style=&quot;font-family: var(--font-family-monospace-iz223z, Monaco, Menlo, Consolas, &amp;quot;Courier Prime&amp;quot;, Courier, &amp;quot;Courier New&amp;quot;, monospace); font-size: var(--font-body-s-size-ukw2p9, 12px); background: rgb(255, 255, 255); margin: 0px; overflow: auto; padding: var(--space-scaled-xl-w2t504, 24px) var(--space-xl-a39hup, 24px); -webkit-font-smoothing: auto; font-weight: 400; line-height: var(--font-body-s-line-height-kdsbrl, 16px); color: rgb(22, 25, 31); letter-spacing: normal; font-style: normal; font-variant-ligatures: normal; font-variant-caps: normal; orphans: 2; text-align: left; text-indent: 0px; text-transform: none; widows: 2; word-spacing: 0px; -webkit-text-stroke-width: 0px; text-decoration-thickness: initial; text-decoration-style: initial; text-decoration-color: initial;&quot; class=&quot;awsui_root_18wu0_1n6nk_93 awsui_box_18wu0_1n6nk_207 awsui_pre-variant_18wu0_1n6nk_207 awsui_p-xl_18wu0_1n6nk_674 awsui_color-default_18wu0_1n6nk_207 awsui_font-size-body-s_18wu0_1n6nk_346 awsui_font-weight-default_18wu0_1n6nk_263&quot; data-testid=&quot;query-results-text&quot;&gt;`jurisdiction` string COMMENT &#39;from deserializer&#39;, &#xa;  `week_of_allocations` string COMMENT &#39;from deserializer&#39;, &#xa;  `_1st_dose_allocations` string COMMENT &#39;from deserializer&#39;, &#xa;  `_2nd_dose_allocations` string COMMENT &#39;from deserializer&#39;&lt;/pre&gt;" style="text;whiteSpace=wrap;html=1;" vertex="1" parent="QKDm_skeis3yHvIdtylH-11">
          <mxGeometry y="30" width="490" height="140" as="geometry" />
        </mxCell>
        <mxCell id="QKDm_skeis3yHvIdtylH-13" style="edgeStyle=orthogonalEdgeStyle;rounded=0;orthogonalLoop=1;jettySize=auto;html=1;exitX=0.5;exitY=1;exitDx=0;exitDy=0;entryX=0.5;entryY=0;entryDx=0;entryDy=0;" edge="1" parent="1" source="QKDm_skeis3yHvIdtylH-8" target="p0b8DTTDvFmvQ0E5esFj-40">
          <mxGeometry relative="1" as="geometry" />
        </mxCell>
        <mxCell id="QKDm_skeis3yHvIdtylH-14" style="edgeStyle=orthogonalEdgeStyle;rounded=0;orthogonalLoop=1;jettySize=auto;html=1;exitX=1;exitY=0.5;exitDx=0;exitDy=0;entryX=-0.012;entryY=0.355;entryDx=0;entryDy=0;entryPerimeter=0;" edge="1" parent="1" source="QKDm_skeis3yHvIdtylH-8" target="p0b8DTTDvFmvQ0E5esFj-19">
          <mxGeometry relative="1" as="geometry" />
        </mxCell>
        <mxCell id="QKDm_skeis3yHvIdtylH-15" style="edgeStyle=orthogonalEdgeStyle;rounded=0;orthogonalLoop=1;jettySize=auto;html=1;exitX=1;exitY=0.75;exitDx=0;exitDy=0;entryX=0.5;entryY=0;entryDx=0;entryDy=0;" edge="1" parent="1" source="QKDm_skeis3yHvIdtylH-8" target="p0b8DTTDvFmvQ0E5esFj-38">
          <mxGeometry relative="1" as="geometry" />
        </mxCell>
        <mxCell id="QKDm_skeis3yHvIdtylH-16" style="edgeStyle=orthogonalEdgeStyle;rounded=0;orthogonalLoop=1;jettySize=auto;html=1;exitX=0.5;exitY=1;exitDx=0;exitDy=0;entryX=0.5;entryY=0;entryDx=0;entryDy=0;" edge="1" parent="1" source="p0b8DTTDvFmvQ0E5esFj-26" target="p0b8DTTDvFmvQ0E5esFj-24">
          <mxGeometry relative="1" as="geometry" />
        </mxCell>
        <mxCell id="QKDm_skeis3yHvIdtylH-17" style="edgeStyle=orthogonalEdgeStyle;rounded=0;orthogonalLoop=1;jettySize=auto;html=1;entryX=0.443;entryY=1;entryDx=0;entryDy=0;entryPerimeter=0;" edge="1" parent="1" source="QKDm_skeis3yHvIdtylH-1" target="p0b8DTTDvFmvQ0E5esFj-39">
          <mxGeometry relative="1" as="geometry" />
        </mxCell>
        <mxCell id="QKDm_skeis3yHvIdtylH-18" style="edgeStyle=orthogonalEdgeStyle;rounded=0;orthogonalLoop=1;jettySize=auto;html=1;exitX=0;exitY=0.5;exitDx=0;exitDy=0;entryX=0;entryY=0.5;entryDx=0;entryDy=0;" edge="1" parent="1" source="QKDm_skeis3yHvIdtylH-5" target="p0b8DTTDvFmvQ0E5esFj-39">
          <mxGeometry relative="1" as="geometry" />
        </mxCell>
        <mxCell id="QKDm_skeis3yHvIdtylH-19" style="edgeStyle=orthogonalEdgeStyle;rounded=0;orthogonalLoop=1;jettySize=auto;html=1;exitX=0;exitY=0.5;exitDx=0;exitDy=0;" edge="1" parent="1" source="p0b8DTTDvFmvQ0E5esFj-31" target="p0b8DTTDvFmvQ0E5esFj-42">
          <mxGeometry relative="1" as="geometry">
            <Array as="points">
              <mxPoint x="20" y="-282" />
              <mxPoint x="20" y="-552" />
            </Array>
          </mxGeometry>
        </mxCell>
        <mxCell id="QKDm_skeis3yHvIdtylH-20" style="edgeStyle=orthogonalEdgeStyle;rounded=0;orthogonalLoop=1;jettySize=auto;html=1;exitX=0.25;exitY=1;exitDx=0;exitDy=0;entryX=0.989;entryY=0.329;entryDx=0;entryDy=0;entryPerimeter=0;" edge="1" parent="1" source="p0b8DTTDvFmvQ0E5esFj-36" target="p0b8DTTDvFmvQ0E5esFj-39">
          <mxGeometry relative="1" as="geometry">
            <Array as="points">
              <mxPoint x="131" y="-590" />
              <mxPoint x="-30" y="-590" />
              <mxPoint x="-30" y="-680" />
            </Array>
          </mxGeometry>
        </mxCell>
        <mxCell id="QKDm_skeis3yHvIdtylH-21" style="edgeStyle=orthogonalEdgeStyle;rounded=0;orthogonalLoop=1;jettySize=auto;html=1;exitX=0.25;exitY=1;exitDx=0;exitDy=0;entryX=1.001;entryY=0.125;entryDx=0;entryDy=0;entryPerimeter=0;" edge="1" parent="1" source="p0b8DTTDvFmvQ0E5esFj-36" target="p0b8DTTDvFmvQ0E5esFj-42">
          <mxGeometry relative="1" as="geometry" />
        </mxCell>
        <mxCell id="QKDm_skeis3yHvIdtylH-22" style="edgeStyle=orthogonalEdgeStyle;rounded=0;orthogonalLoop=1;jettySize=auto;html=1;exitX=0;exitY=0.5;exitDx=0;exitDy=0;entryX=1;entryY=0.5;entryDx=0;entryDy=0;" edge="1" parent="1" source="p0b8DTTDvFmvQ0E5esFj-36" target="p0b8DTTDvFmvQ0E5esFj-26">
          <mxGeometry relative="1" as="geometry" />
        </mxCell>
        <mxCell id="QKDm_skeis3yHvIdtylH-23" value="" style="edgeStyle=orthogonalEdgeStyle;rounded=0;orthogonalLoop=1;jettySize=auto;html=1;" edge="1" parent="1" source="p0b8DTTDvFmvQ0E5esFj-36">
          <mxGeometry relative="1" as="geometry">
            <mxPoint x="200" y="-540" as="targetPoint" />
          </mxGeometry>
        </mxCell>
        <mxCell id="QKDm_skeis3yHvIdtylH-25" style="edgeStyle=orthogonalEdgeStyle;rounded=0;orthogonalLoop=1;jettySize=auto;html=1;entryX=1.009;entryY=0.362;entryDx=0;entryDy=0;entryPerimeter=0;" edge="1" parent="1" target="p0b8DTTDvFmvQ0E5esFj-42">
          <mxGeometry relative="1" as="geometry">
            <mxPoint x="520" y="-566" as="sourcePoint" />
            <Array as="points">
              <mxPoint x="520" y="-610" />
              <mxPoint x="520" y="-566" />
            </Array>
          </mxGeometry>
        </mxCell>
        <mxCell id="QKDm_skeis3yHvIdtylH-26" value="" style="endArrow=classic;html=1;rounded=0;exitX=-0.003;exitY=0.59;exitDx=0;exitDy=0;exitPerimeter=0;entryX=0.837;entryY=1.003;entryDx=0;entryDy=0;entryPerimeter=0;" edge="1" parent="1" source="QKDm_skeis3yHvIdtylH-9" target="p0b8DTTDvFmvQ0E5esFj-36">
          <mxGeometry width="50" height="50" relative="1" as="geometry">
            <mxPoint x="-40" y="-500" as="sourcePoint" />
            <mxPoint x="10" y="-550" as="targetPoint" />
            <Array as="points">
              <mxPoint x="428" y="-487" />
            </Array>
          </mxGeometry>
        </mxCell>
        <mxCell id="QKDm_skeis3yHvIdtylH-27" value="" style="endArrow=classic;html=1;rounded=0;exitX=0;exitY=0.75;exitDx=0;exitDy=0;entryX=0.997;entryY=0.399;entryDx=0;entryDy=0;entryPerimeter=0;" edge="1" parent="1" source="QKDm_skeis3yHvIdtylH-9" target="p0b8DTTDvFmvQ0E5esFj-31">
          <mxGeometry width="50" height="50" relative="1" as="geometry">
            <mxPoint x="510" y="-330" as="sourcePoint" />
            <mxPoint x="360" y="-330" as="targetPoint" />
          </mxGeometry>
        </mxCell>
      </root>
    </mxGraphModel>
  </diagram>
</mxfile>
